<?xml version="1.0" standalone="no"?>
<!DOCTYPE svg PUBLIC "-//W3C//DTD SVG 20010904//EN"
 "http://www.w3.org/TR/2001/REC-SVG-20010904/DTD/svg10.dtd">
<svg version="1.0" xmlns="http://www.w3.org/2000/svg"
 width="396.000000pt" height="763.000000pt" viewBox="0 0 396.000000 763.000000"
 preserveAspectRatio="xMidYMid meet">
<metadata>
Created by potrace 1.15, written by Peter Selinger 2001-2017
</metadata>
<g transform="translate(0.000000,763.000000) scale(0.100000,-0.100000)"
fill="#000000" stroke="none">
<path d="M13 7623 c-10 -4 -13 -776 -13 -3814 l0 -3809 1980 0 1980 0 -2 3813
-3 3812 -1965 2 c-1081 1 -1971 -1 -1977 -4z m3875 -3808 l-3 -3745 -1905 0
-1905 0 -3 3745 -2 3745 1910 0 1910 0 -2 -3745z"/>
<path d="M1505 7092 c-22 -11 -52 -32 -67 -48 -56 -60 -57 -70 -57 -460 -1
-197 3 -377 8 -398 11 -47 34 -79 83 -119 29 -23 49 -30 100 -34 70 -6 122 13
165 59 52 55 53 69 53 487 l0 389 -32 48 c-57 83 -168 116 -253 76z m142 -134
c17 -19 18 -47 18 -388 0 -348 -1 -369 -19 -389 -23 -25 -81 -28 -111 -5 -19
14 -20 28 -23 367 -2 194 0 366 3 383 10 57 91 77 132 32z"/>
<path d="M2100 7087 c-29 -15 -57 -41 -77 -71 l-33 -48 0 -393 c0 -391 0 -392
23 -436 63 -119 227 -146 321 -52 62 62 61 52 63 471 3 426 3 425 -63 493 -60
62 -154 76 -234 36z m148 -127 c22 -21 22 -23 22 -389 0 -345 -1 -369 -19
-389 -24 -28 -80 -29 -112 -3 l-24 19 0 372 0 372 24 19 c31 25 81 24 109 -1z"/>
<path d="M680 6430 l0 -670 65 0 65 0 0 295 0 295 71 0 c130 0 133 -4 139
-286 l5 -221 28 -36 c31 -41 55 -56 104 -68 l33 -7 0 64 c0 52 -3 65 -19 73
-17 10 -19 28 -23 230 l-4 219 -31 50 -31 50 30 58 29 59 -3 205 c-3 190 -5
208 -25 240 -61 98 -115 120 -299 120 l-134 0 0 -670z m301 511 l29 -29 0
-177 c0 -234 -11 -255 -140 -255 l-60 0 0 245 0 245 71 0 c65 0 73 -2 100 -29z"/>
<path d="M2590 6430 l0 -670 65 0 66 0 -3 365 c-2 201 0 365 3 365 3 0 10 -30
17 -67 6 -38 29 -169 52 -293 23 -124 47 -256 54 -295 l12 -70 70 -3 71 -3 27
158 c16 87 38 212 51 278 12 66 28 152 35 190 25 148 28 122 29 -247 l1 -378
65 0 65 0 -2 668 -3 667 -65 0 -65 0 -11 -55 c-6 -30 -21 -107 -33 -170 -107
-591 -153 -838 -160 -855 -5 -13 -16 27 -35 130 -46 252 -56 303 -91 500 -19
105 -41 224 -49 265 -8 41 -17 93 -21 115 -12 76 -10 75 -81 75 l-64 0 0 -670z"/>
<path d="M748 5664 c-5 -4 -8 -92 -8 -196 l0 -188 323 0 c317 0 323 -1 372
-24 68 -32 120 -88 145 -154 20 -53 21 -72 18 -501 -3 -435 -4 -447 -25 -486
-39 -72 -102 -125 -176 -146 -16 -5 -115 -9 -219 -9 -105 -1 -197 -4 -204 -7
-11 -4 -14 -42 -14 -188 l0 -183 218 -4 217 -3 54 -30 c65 -36 115 -92 135
-153 24 -68 24 -1086 1 -1153 -20 -57 -76 -120 -135 -151 -44 -22 -54 -23
-375 -28 l-330 -5 0 -190 0 -190 330 0 c307 0 336 2 410 22 118 32 207 85 300
178 91 91 146 181 178 295 21 73 22 92 22 640 0 501 -2 573 -17 631 -23 88
-75 193 -132 268 l-47 60 47 58 c26 32 62 90 81 130 66 142 66 146 71 613 4
448 -1 531 -40 645 -31 88 -101 200 -158 253 -100 93 -180 140 -291 173 -68
20 -102 22 -409 26 -184 3 -338 1 -342 -3z"/>
<path d="M2700 3670 l0 -2000 183 2 182 3 3 1998 2 1997 -185 0 -185 0 0
-2000z"/>
<path d="M793 1551 c-26 -12 -52 -35 -70 -62 -25 -38 -28 -51 -27 -123 0 -77
3 -86 53 -186 30 -58 66 -127 81 -155 96 -174 114 -220 118 -285 3 -55 1 -69
-18 -92 -17 -23 -29 -28 -63 -28 -61 1 -79 19 -85 85 l-4 55 -51 0 -50 0 6
-59 c10 -120 75 -181 190 -181 68 0 112 25 152 85 25 37 26 46 23 128 -4 88
-5 91 -79 235 -41 81 -96 188 -123 237 -44 82 -49 96 -50 158 -1 61 2 71 23
88 29 24 82 25 110 2 13 -11 24 -36 29 -63 l8 -45 44 0 45 0 3 42 c3 45 -21
105 -55 135 -53 48 -140 60 -210 29z"/>
<path d="M1154 1561 c-2 -2 -4 -24 -4 -48 l0 -43 75 0 75 0 0 -470 0 -470 50
0 50 0 2 468 3 467 73 3 72 3 0 44 0 44 -196 3 c-108 2 -198 1 -200 -1z"/>
<path d="M1742 1562 l-43 -3 3 -357 c3 -394 4 -396 67 -439 26 -18 48 -23 93
-23 74 0 112 20 138 75 19 39 20 63 20 393 l0 352 -25 1 c-14 1 -35 2 -47 2
l-23 1 -3 -349 c-2 -307 -4 -351 -19 -367 -19 -22 -52 -23 -79 -4 -18 14 -19
31 -22 363 -1 191 -6 350 -10 353 -4 3 -26 4 -50 2z"/>
<path d="M2188 1562 c-17 -3 -18 -36 -18 -518 l0 -514 115 0 c134 0 174 14
215 76 l25 38 3 393 c3 379 2 395 -17 427 -31 49 -53 71 -86 84 -29 11 -202
21 -237 14z m209 -112 c12 -8 24 -23 27 -35 11 -41 6 -723 -5 -749 -14 -30
-29 -37 -96 -42 l-53 -4 0 424 0 425 53 -2 c28 -2 62 -9 74 -17z"/>
<path d="M3050 1559 c-33 -13 -59 -38 -77 -73 -12 -23 -16 -84 -18 -305 -2
-152 0 -294 5 -315 25 -113 147 -164 242 -101 66 44 68 56 68 391 0 334 -2
346 -71 390 -41 26 -103 31 -149 13z m108 -101 c18 -18 17 -591 0 -606 -31
-24 -57 -23 -83 2 l-25 25 0 277 c0 244 2 280 17 296 18 20 73 24 91 6z"/>
<path d="M2690 1045 l0 -515 50 0 50 0 0 515 0 515 -50 0 -50 0 0 -515z"/>
</g>
</svg>
